<?xml version="1.0" encoding="UTF-8"?>
<svg width="2222px" height="527px" viewBox="0 0 2222 527" version="1.1" xmlns="http://www.w3.org/2000/svg" xmlns:xlink="http://www.w3.org/1999/xlink">
    <!-- Generator: Sketch 64 (93537) - https://sketch.com -->
    <title>Group</title>
    <desc>Created with Sketch.</desc>
    <g id="Page-1" stroke="none" stroke-width="1" fill="none" fill-rule="evenodd">
        <g id="Artboard-Copy-7" transform="translate(-343.000000, -281.000000)" fill-rule="nonzero">
            <g id="Group" transform="translate(343.000000, 124.000000)">
                <path d="M130.807812,599 C156.289062,599 179.492188,594.865625 200.417187,586.596875 C221.342187,578.328125 239.314063,566.43125 254.332812,550.90625 C269.351562,535.38125 280.995312,516.565625 289.264062,494.459375 C297.532812,472.353125 301.667188,447.4625 301.667188,419.7875 C301.667188,392.28125 297.532812,367.475 289.264062,345.36875 C280.995312,323.2625 269.351562,304.446875 254.332812,288.921875 C239.314063,273.396875 221.342187,261.5 200.417187,253.23125 C179.492188,244.9625 156.289062,240.828125 130.807812,240.828125 L130.807812,240.828125 L0.1953125,240.828125 L0.1953125,599 L130.807812,599 Z M130.807812,577.990625 L26.2671875,577.990625 L26.2671875,261.8375 L130.807812,261.8375 C152.407812,261.8375 172.067187,265.38125 189.785937,272.46875 C207.504687,279.55625 222.65,289.85 235.221875,303.35 C247.79375,316.85 257.539062,333.3875 264.457812,352.9625 C271.376562,372.5375 274.835938,394.8125 274.835938,419.7875 C274.835938,444.93125 271.376562,467.290625 264.457812,486.865625 C257.539062,506.440625 247.79375,522.978125 235.221875,536.478125 C222.65,549.978125 207.504687,560.271875 189.785937,567.359375 C172.067187,574.446875 152.407812,577.990625 130.807812,577.990625 L130.807812,577.990625 Z M426.204687,603.05 C436.498437,603.05 445.948438,602.079687 454.554688,600.139063 C463.160937,598.198437 471.176562,595.371875 478.601562,591.659375 C486.026563,587.946875 493.15625,583.390625 499.990625,577.990625 C506.825,572.590625 513.701563,566.515625 520.620312,559.765625 L520.620312,559.765625 L524.164062,591.9125 C525.345312,596.6375 528.467188,599 533.529688,599 L533.529688,599 L543.148438,599 L543.148438,434.975 C543.148438,420.96875 541.460938,408.270313 538.085938,396.879688 C534.710938,385.489063 529.690625,375.785938 523.025,367.770313 C516.359375,359.754688 507.964062,353.595313 497.839062,349.292188 C487.714062,344.989063 475.901562,342.8375 462.401562,342.8375 C444.007812,342.8375 427.554688,346.2125 413.042188,352.9625 C398.529688,359.7125 384.692187,369.66875 371.529688,382.83125 L371.529688,382.83125 L375.832812,390.171875 C377.520312,393.209375 380.051562,394.728125 383.426562,394.728125 C385.957812,394.728125 389.079687,393.040625 392.792188,389.665625 C396.504687,386.290625 401.314062,382.578125 407.220312,378.528125 C413.126562,374.478125 420.340625,370.765625 428.8625,367.390625 C437.384375,364.015625 447.720312,362.328125 459.870312,362.328125 C479.614062,362.328125 494.50625,368.614062 504.546875,381.185938 C514.5875,393.757812 519.607813,411.6875 519.607813,434.975 L519.607813,434.975 L519.607813,461.3 C491.089063,461.975 466.6625,464.3375 446.328125,468.3875 C425.99375,472.4375 409.371875,477.8375 396.4625,484.5875 C383.553125,491.3375 374.060937,499.26875 367.985937,508.38125 C361.910937,517.49375 358.873438,527.365625 358.873438,537.996875 C358.873438,549.471875 360.771875,559.301563 364.56875,567.485937 C368.365625,575.670313 373.385938,582.378125 379.629687,587.609375 C385.873438,592.840625 393.045313,596.721875 401.145312,599.253125 C409.245313,601.784375 417.598437,603.05 426.204687,603.05 Z M432.279687,585.584375 C425.698437,585.584375 419.370312,584.65625 413.295312,582.8 C407.220312,580.94375 401.904687,578.032813 397.348437,574.067188 C392.792187,570.101562 389.121875,565.039062 386.3375,558.879688 C383.553125,552.720313 382.160937,545.421875 382.160937,536.984375 C382.160937,528.040625 384.81875,520.067188 390.134375,513.064062 C395.45,506.060937 403.71875,500.028125 414.940625,494.965625 C426.1625,489.903125 440.421875,485.895312 457.71875,482.942187 C475.015625,479.989062 495.645312,478.175 519.607812,477.5 L519.607812,477.5 L519.607812,543.059375 C513.701562,549.134375 507.710937,554.7875 501.635937,560.01875 C495.560937,565.25 489.021875,569.764063 482.01875,573.560938 C475.015625,577.357813 467.421875,580.310938 459.2375,582.420313 C451.053125,584.529688 442.067187,585.584375 432.279687,585.584375 Z M643.132812,599 L643.132812,410.16875 C654.270312,395.31875 666.926562,383.632812 681.101562,375.110937 C695.276562,366.589063 710.632812,362.328125 727.170312,362.328125 C749.445312,362.328125 765.982812,369.035938 776.782812,382.451563 C787.582812,395.867188 792.982812,414.3875 792.982812,438.0125 L792.982812,438.0125 L792.982812,599 L817.029687,599 L817.029687,438.0125 C817.029687,423.33125 815.257812,410.16875 811.714062,398.525 C808.170313,386.88125 802.939062,376.925 796.020312,368.65625 C789.101562,360.3875 780.36875,354.059375 769.821875,349.671875 C759.275,345.284375 747.082812,343.090625 733.245312,343.090625 C714.514063,343.090625 697.5125,347.520313 682.240625,356.379688 C666.96875,365.239063 653.595312,376.925 642.120312,391.4375 L642.120312,391.4375 L639.842188,353.46875 C639.167187,349.25 636.635937,347.140625 632.248438,347.140625 L632.248438,347.140625 L619.085938,347.140625 L619.085938,599 L643.132812,599 Z" id="Dan" fill="#FFFFFF"></path>
                <path d="M809.584229,683.595886 C814.116089,683.595886 817.926971,680.299988 821.016876,673.708191 C856.035797,603.258362 911.345093,517.97699 986.944763,417.864075 C1026.70154,365.1297 1066.04633,317.339172 1104.97913,274.492493 C1078.61194,319.399109 1045.96194,379.858246 1007.02914,455.869904 C968.096344,531.881561 948.217957,574.213257 947.393982,582.86499 L947.393982,582.86499 L947.393982,584.409943 C947.393982,591.207733 951.101868,597.336044 958.517639,602.794876 C965.933411,608.253708 972.988693,610.983124 979.683487,610.983124 C986.378281,610.983124 991.476624,609.541168 994.978516,606.657257 C1016.19586,589.147797 1089.7356,514.475098 1215.59772,382.63916 C1272.45197,322.901001 1307.47089,286.234131 1320.65448,272.63855 C1258.2384,359.361877 1206.94598,435.167542 1166.77722,500.055542 C1139.99805,543.726196 1126.60846,571.947327 1126.60846,584.718933 C1126.60846,595.430603 1130.62534,604.957809 1138.65909,613.300552 C1146.69284,621.643295 1157.8165,625.814667 1172.03006,625.814667 C1186.24362,625.814667 1208.33644,614.330521 1238.30852,591.362228 C1268.28059,568.393936 1290.06442,548.052063 1303.66,530.336609 C1308.80984,523.538818 1311.38477,517.667999 1311.38477,512.724152 L1311.38477,512.724152 L1308.91284,500.982513 C1308.91284,500.158539 1308.75835,498.562088 1308.44936,496.193161 C1308.14037,493.824234 1307.83138,491.558304 1307.52238,489.39537 C1307.21339,487.232437 1306.64691,483.473053 1305.82294,478.117218 C1303.96899,468.847504 1301.29108,466.272583 1297.78918,470.392456 C1297.1712,471.216431 1296.45023,472.040405 1295.62625,472.86438 C1294.80228,473.688354 1293.46332,475.336304 1291.60938,477.808228 C1248.7627,524.980774 1216.52469,550.832977 1194.89536,555.364838 C1205.60703,531.469574 1233.93115,485.53299 1279.86774,417.555084 C1325.80432,349.577179 1382.24658,271.093597 1449.19452,182.10434 C1450.43048,180.662384 1451.04846,178.808441 1451.04846,176.542511 C1451.04846,174.276581 1449.864,172.062149 1447.49507,169.899216 C1445.12614,167.736282 1442.29373,166.345825 1438.99783,165.727844 C1427.2562,165.727844 1414.99957,163.873901 1402.22797,160.166016 C1395.01819,158.106079 1389.04437,157.076111 1384.30652,157.076111 C1372.56488,157.076111 1336.51599,186.327209 1276.15985,244.829407 C1229.81128,289.942017 1185.57414,335.157623 1143.44844,380.476227 C1101.32274,425.79483 1068.93024,462.15271 1046.27094,489.549866 C1069.96021,443.819275 1116.30878,359.773865 1185.31665,237.413635 C1205.91602,200.540771 1216.2157,180.868378 1216.2157,178.396454 C1216.2157,174.482574 1212.45631,170.980682 1204.93755,167.890778 C1197.41878,164.800873 1189.69402,163.25592 1181.76326,163.25592 C1173.8325,163.25592 1168.52817,164.90387 1165.85025,168.199768 C1165.23227,168.817749 1164.61429,169.12674 1163.99631,169.12674 C1163.37833,169.12674 1161.83337,168.45726 1159.36145,167.118301 C1156.88953,165.779343 1154.31461,165.109863 1151.63669,165.109863 C1134.74521,165.109863 1096.73938,199.716797 1037.6192,268.930664 C994.772522,318.987122 953.367798,371.052017 913.405029,425.125351 C873.442261,479.198685 838.320343,529.049149 808.039276,574.676743 C777.758209,620.304337 762.617676,646.826019 762.617676,654.241791 C762.617676,666.60141 771.681396,675.253143 789.808838,680.196991 C798.460571,682.462921 805.052368,683.595886 809.584229,683.595886 Z M1364.84012,623.342743 C1380.70163,623.342743 1398.36559,618.038406 1417.83199,607.429733 C1437.29839,596.82106 1455.42583,583.225479 1472.21431,566.64299 C1489.00279,550.060501 1504.40082,532.345047 1518.40839,513.496628 C1532.41595,494.648209 1543.43661,476.10878 1551.47037,457.878342 C1559.50412,439.647903 1563.521,424.81636 1563.521,413.383713 C1563.521,401.951065 1560.2766,393.453827 1553.7878,387.891998 C1547.299,382.33017 1540.96469,379.549255 1534.78488,379.549255 C1528.60507,379.549255 1524.07321,379.755249 1521.1893,380.167236 L1521.1893,380.167236 L1521.1893,378.313293 C1521.1893,376.871338 1520.15933,375.223389 1518.0994,373.369446 C1512.33157,367.807617 1503.78284,365.026703 1492.45319,365.026703 C1467.11597,365.026703 1437.65887,378.519287 1404.08191,405.504456 C1388.0144,418.688049 1373.07986,433.571091 1359.27829,450.15358 C1345.47672,466.736069 1334.19856,485.84198 1325.44383,507.471313 C1316.6891,529.100647 1312.31174,548.824539 1312.31174,566.64299 C1312.31174,584.461441 1317.10109,598.366013 1326.67979,608.356705 C1336.2585,618.347397 1348.97861,623.342743 1364.84012,623.342743 Z M1371.63791,577.612152 C1363.19217,577.612152 1358.9693,571.84433 1358.9693,560.308685 C1359.38129,537.031403 1372.77087,508.501282 1399.13806,474.718323 C1412.11566,457.826843 1426.84421,443.201294 1443.3237,430.841675 C1459.80319,418.482056 1475.56171,409.830322 1490.59924,404.886475 C1490.59924,415.392151 1494.20413,420.644989 1501.41391,420.644989 L1501.41391,420.644989 L1503.57684,420.644989 C1506.46075,420.644989 1507.90271,423.374405 1507.90271,428.833237 C1507.90271,434.292068 1503.83434,444.591751 1495.69759,459.732285 C1487.56084,474.872818 1475.30421,492.742767 1458.92772,513.342133 C1442.55122,533.941498 1426.02023,549.803009 1409.33475,560.926666 C1392.64926,572.050323 1380.08365,577.612152 1371.63791,577.612152 Z M1596.58298,623.342743 C1612.44449,623.342743 1630.10844,618.038406 1649.57484,607.429733 C1669.04124,596.82106 1687.16869,583.225479 1703.95717,566.64299 C1720.74565,550.060501 1736.14368,532.345047 1750.15125,513.496628 C1764.15881,494.648209 1775.17947,476.10878 1783.21323,457.878342 C1791.24698,439.647903 1795.26385,424.81636 1795.26385,413.383713 C1795.26385,401.951065 1792.01945,393.453827 1785.53065,387.891998 C1779.04185,382.33017 1772.70755,379.549255 1766.52774,379.549255 C1760.34793,379.549255 1755.81607,379.755249 1752.93216,380.167236 L1752.93216,380.167236 L1752.93216,378.313293 C1752.93216,376.871338 1751.90219,375.223389 1749.84225,373.369446 C1744.07443,367.807617 1735.5257,365.026703 1724.19604,365.026703 C1698.85883,365.026703 1669.40173,378.519287 1635.82477,405.504456 C1619.75726,418.688049 1604.82272,433.571091 1591.02115,450.15358 C1577.21957,466.736069 1565.94142,485.84198 1557.18669,507.471313 C1548.43196,529.100647 1544.0546,548.824539 1544.0546,566.64299 C1544.0546,584.461441 1548.84395,598.366013 1558.42265,608.356705 C1568.00136,618.347397 1580.72147,623.342743 1596.58298,623.342743 Z M1603.38077,577.612152 C1594.93503,577.612152 1590.71216,571.84433 1590.71216,560.308685 C1591.12415,537.031403 1604.51373,508.501282 1630.88092,474.718323 C1643.85852,457.826843 1658.58707,443.201294 1675.06656,430.841675 C1691.54605,418.482056 1707.30457,409.830322 1722.3421,404.886475 C1722.3421,415.392151 1725.94699,420.644989 1733.15677,420.644989 L1733.15677,420.644989 L1735.3197,420.644989 C1738.20361,420.644989 1739.64557,423.374405 1739.64557,428.833237 C1739.64557,434.292068 1735.57719,444.591751 1727.44044,459.732285 C1719.3037,474.872818 1707.04707,492.742767 1690.67058,513.342133 C1674.29408,533.941498 1657.76309,549.803009 1641.07761,560.926666 C1624.39212,572.050323 1611.82651,577.612152 1603.38077,577.612152 Z M1781.51378,615.617981 C1785.94264,615.617981 1791.34998,611.189117 1797.73578,602.33139 C1819.7771,572.668304 1840.22197,547.48558 1859.07039,526.783218 C1877.91881,506.080856 1900.7841,482.649078 1927.66628,456.487885 C1954.54845,430.326691 1971.38843,416.937103 1978.18622,416.319122 L1978.18622,416.319122 L1978.8042,416.937103 C1963.56067,434.858551 1955.9389,450.926056 1955.9389,465.139618 C1955.9389,471.525421 1957.74135,477.08725 1961.34624,481.825104 C1964.95113,486.562958 1969.99797,488.931885 1976.48677,488.931885 C1982.97557,488.931885 1988.79489,485.635986 1993.94473,479.044189 C2003.62643,466.066589 2014.18361,450.15358 2025.61626,431.305161 C2037.0489,412.456741 2042.76523,399.015656 2042.76523,390.981903 C2042.76523,382.948151 2040.03581,376.407852 2034.57698,371.361008 C2029.11815,366.314163 2022.16586,363.790741 2013.72012,363.790741 C1979.52518,363.790741 1938.12045,391.39389 1889.50595,446.600189 L1889.50595,446.600189 L1902.48355,427.133789 C1920.405,400.354614 1929.36572,382.124176 1929.36572,372.442474 C1929.36572,366.262665 1926.8938,363.17276 1921.94995,363.17276 C1899.90863,363.17276 1884.25311,369.043579 1874.9834,380.785217 C1870.03955,386.965027 1863.65375,396.852722 1855.82599,410.448303 C1852.1181,417.0401 1840.78845,436.19751 1821.83704,467.920532 C1802.88562,499.643555 1788.92955,523.332825 1779.96883,538.988342 C1771.0081,554.64386 1764.31331,565.973511 1759.88445,572.977295 C1755.45558,579.981079 1752.41718,585.388412 1750.76923,589.199295 C1749.12128,593.010178 1748.2973,596.357574 1748.2973,599.241486 C1748.2973,602.125397 1749.06978,604.185333 1750.61473,605.421295 C1752.15968,606.657257 1756.58855,608.665695 1763.90132,611.446609 C1771.2141,614.227524 1777.08492,615.617981 1781.51378,615.617981 Z M2080.15308,627.050629 C2119.49786,627.050629 2161.21158,609.129181 2205.29422,573.286285 C2212.09201,567.724457 2216.21188,563.038101 2217.65384,559.227219 C2219.09579,555.416336 2219.81677,547.537079 2219.81677,535.589447 C2219.81677,523.641815 2217.13885,517.667999 2211.78302,517.667999 C2210.13507,517.667999 2207.71465,518.800964 2204.52174,521.066895 C2201.32884,523.332825 2193.70708,529.358139 2181.65645,539.142838 C2169.60582,548.927536 2156.06174,558.557739 2141.0242,568.033447 C2123.30875,579.157104 2105.69629,584.718933 2088.18683,584.718933 C2060.78967,584.718933 2047.09109,576.685181 2047.09109,560.617676 C2047.09109,551.553955 2068.82343,534.868469 2112.28809,510.561218 C2114.55402,509.325256 2119.08588,507.522812 2125.88367,505.153885 C2132.68146,502.784958 2138.75827,499.334564 2144.11411,494.802704 C2149.46994,490.270844 2152.14786,486.614456 2152.14786,483.833542 C2152.14786,481.052628 2150.60291,477.241745 2147.513,472.400894 C2144.4231,467.560043 2141.53918,464.41864 2138.86127,462.976685 C2137.62531,462.564697 2134.99889,462.358704 2130.98201,462.358704 C2126.96513,462.358704 2119.90985,464.058151 2109.81616,467.457047 C2099.72247,470.855942 2092.2552,472.555389 2087.41435,472.555389 C2082.5735,472.555389 2080.15308,471.731415 2080.15308,470.083466 C2080.15308,465.139618 2086.74487,457.62085 2099.92847,447.527161 C2113.11206,437.433472 2124.23572,429.811707 2133.29944,424.661865 C2142.36316,419.512024 2150.60291,415.701141 2158.01868,413.229218 C2157.1947,416.525116 2156.78271,419.924011 2156.78271,423.425903 C2156.78271,426.927795 2157.50369,429.760208 2158.94565,431.923141 C2160.3876,434.086075 2163.37451,435.167542 2167.90637,435.167542 C2181.91394,435.167542 2194.42805,430.0177 2205.44872,419.718018 C2216.46938,409.418335 2221.97971,397.470703 2221.97971,383.875122 C2221.97971,377.901306 2218.47781,373.266449 2211.47403,369.970551 C2204.47025,366.674652 2197.56946,365.026703 2190.77167,365.026703 C2162.34454,365.026703 2130.00354,374.811401 2093.74866,394.380798 C2077.47516,403.032532 2063.72508,414.104691 2052.49843,427.597275 C2041.27177,441.089859 2035.65845,453.861465 2035.65845,465.912094 C2035.65845,477.962723 2036.79141,486.717453 2039.05734,492.176285 C2041.32327,497.635117 2046.37012,502.115479 2054.19788,505.617371 C2014.85309,520.24292 1995.18069,541.769257 1995.18069,570.196381 C1995.18069,591.825714 2006.71634,607.893219 2029.78763,618.398895 C2042.35324,624.166718 2059.14172,627.050629 2080.15308,627.050629 Z" id="Moore" fill="#FCBA04"></path>
            </g>
        </g>
    </g>
</svg>